<svg xmlns="http://www.w3.org/2000/svg" xmlns:xlink="http://www.w3.org/1999/xlink" width="250" zoomAndPan="magnify" viewBox="0 0 187.5 74.999997" height="100" preserveAspectRatio="xMidYMid meet" version="1.0"><defs><clipPath id="dc4d0a71fb"><path d="M 7.480469 29 L 24 29 L 24 52 L 7.480469 52 Z M 7.480469 29 " clip-rule="nonzero"/></clipPath><clipPath id="5cc4476222"><path d="M 7.480469 23 L 35 23 L 35 53 L 7.480469 53 Z M 7.480469 23 " clip-rule="nonzero"/></clipPath></defs><path fill="#110d1a" d="M 47.652344 46.816406 L 47.652344 28.699219 L 60.003906 28.699219 L 60.003906 32.125 L 51.769531 32.125 L 51.769531 35.679688 L 59.078125 35.679688 L 59.078125 39.027344 L 51.769531 39.027344 L 51.769531 43.390625 L 60.609375 43.390625 L 60.609375 46.816406 Z M 62.9375 33.535156 C 63.605469 33.34375 64.46875 33.171875 65.523438 33.011719 C 66.578125 32.839844 67.6875 32.75 68.847656 32.75 C 70.027344 32.75 71.003906 32.910156 71.777344 33.222656 C 72.566406 33.519531 73.191406 33.945312 73.648438 34.503906 C 74.105469 35.0625 74.433594 35.722656 74.625 36.488281 C 74.820312 37.257812 74.917969 38.109375 74.917969 39.050781 L 74.917969 46.816406 L 70.984375 46.816406 L 70.984375 39.523438 C 70.984375 38.269531 70.816406 37.378906 70.484375 36.855469 C 70.148438 36.332031 69.523438 36.070312 68.609375 36.070312 C 68.328125 36.070312 68.027344 36.089844 67.710938 36.125 C 67.394531 36.140625 67.113281 36.167969 66.867188 36.203125 L 66.867188 46.816406 L 62.9375 46.816406 Z M 77.886719 29.640625 L 81.820312 29.011719 L 81.820312 33.066406 L 86.542969 33.066406 L 86.542969 36.308594 L 81.820312 36.308594 L 81.820312 41.144531 C 81.820312 41.960938 81.960938 42.617188 82.242188 43.105469 C 82.542969 43.59375 83.128906 43.835938 84.011719 43.835938 C 84.433594 43.835938 84.863281 43.800781 85.304688 43.730469 C 85.761719 43.644531 86.171875 43.53125 86.542969 43.390625 L 87.097656 46.425781 C 86.621094 46.617188 86.09375 46.78125 85.515625 46.921875 C 84.933594 47.058594 84.222656 47.128906 83.375 47.128906 C 82.304688 47.128906 81.414062 46.992188 80.710938 46.710938 C 80.007812 46.414062 79.445312 46.015625 79.023438 45.507812 C 78.601562 44.984375 78.300781 44.359375 78.125 43.625 C 77.96875 42.894531 77.886719 42.085938 77.886719 41.195312 Z M 97.65625 36.515625 C 97.300781 36.429688 96.890625 36.34375 96.414062 36.253906 C 95.941406 36.148438 95.429688 36.097656 94.882812 36.097656 C 94.636719 36.097656 94.339844 36.125 93.988281 36.175781 C 93.652344 36.210938 93.398438 36.253906 93.222656 36.308594 L 93.222656 46.816406 L 89.289062 46.816406 L 89.289062 33.796875 C 89.992188 33.554688 90.820312 33.328125 91.769531 33.117188 C 92.738281 32.890625 93.8125 32.777344 94.988281 32.777344 C 95.199219 32.777344 95.457031 32.796875 95.753906 32.832031 C 96.054688 32.847656 96.351562 32.882812 96.652344 32.933594 C 96.953125 32.96875 97.25 33.023438 97.550781 33.089844 C 97.847656 33.144531 98.101562 33.214844 98.316406 33.300781 Z M 113.113281 33.066406 C 112.324219 35.714844 111.496094 38.199219 110.632812 40.515625 C 109.773438 42.832031 108.832031 45.082031 107.8125 47.261719 C 107.441406 48.042969 107.074219 48.707031 106.703125 49.246094 C 106.332031 49.804688 105.929688 50.257812 105.488281 50.605469 C 105.046875 50.972656 104.546875 51.234375 103.984375 51.390625 C 103.4375 51.566406 102.796875 51.652344 102.058594 51.652344 C 101.441406 51.652344 100.871094 51.589844 100.34375 51.46875 C 99.832031 51.363281 99.410156 51.242188 99.078125 51.101562 L 99.761719 47.992188 C 100.167969 48.132812 100.527344 48.226562 100.84375 48.28125 C 101.160156 48.332031 101.496094 48.359375 101.847656 48.359375 C 102.550781 48.359375 103.089844 48.167969 103.457031 47.785156 C 103.84375 47.417969 104.167969 46.902344 104.433594 46.242188 C 103.535156 44.5 102.640625 42.546875 101.742188 40.386719 C 100.84375 38.207031 100 35.765625 99.207031 33.066406 L 103.378906 33.066406 C 103.554688 33.746094 103.753906 34.484375 103.984375 35.289062 C 104.230469 36.070312 104.488281 36.875 104.75 37.691406 C 105.015625 38.496094 105.277344 39.277344 105.542969 40.046875 C 105.824219 40.8125 106.085938 41.507812 106.332031 42.136719 C 106.5625 41.507812 106.800781 40.8125 107.046875 40.046875 C 107.292969 39.277344 107.527344 38.496094 107.757812 37.691406 C 108.003906 36.875 108.234375 36.070312 108.445312 35.289062 C 108.671875 34.484375 108.875 33.746094 109.050781 33.066406 Z M 127.25 43.3125 L 127.25 46.816406 L 115.03125 46.816406 L 115.03125 28.699219 L 119.148438 28.699219 L 119.148438 43.3125 Z M 128.523438 40.046875 C 128.523438 38.824219 128.707031 37.761719 129.074219 36.855469 C 129.460938 35.933594 129.964844 35.164062 130.578125 34.554688 C 131.195312 33.945312 131.898438 33.484375 132.691406 33.171875 C 133.5 32.855469 134.328125 32.699219 135.171875 32.699219 C 137.140625 32.699219 138.699219 33.300781 139.84375 34.503906 C 140.984375 35.6875 141.558594 37.441406 141.558594 39.757812 C 141.558594 39.984375 141.546875 40.238281 141.53125 40.515625 C 141.511719 40.777344 141.496094 41.011719 141.476562 41.222656 L 132.558594 41.222656 C 132.644531 42.023438 133.023438 42.660156 133.695312 43.128906 C 134.363281 43.601562 135.257812 43.835938 136.386719 43.835938 C 137.105469 43.835938 137.808594 43.773438 138.496094 43.652344 C 139.199219 43.511719 139.769531 43.347656 140.210938 43.15625 L 140.738281 46.320312 C 140.527344 46.425781 140.246094 46.527344 139.894531 46.632812 C 139.542969 46.738281 139.148438 46.824219 138.707031 46.894531 C 138.285156 46.980469 137.828125 47.050781 137.335938 47.105469 C 136.84375 47.15625 136.351562 47.183594 135.859375 47.183594 C 134.609375 47.183594 133.515625 47 132.585938 46.632812 C 131.671875 46.265625 130.90625 45.769531 130.289062 45.144531 C 129.691406 44.5 129.242188 43.738281 128.945312 42.867188 C 128.660156 41.996094 128.523438 41.054688 128.523438 40.046875 Z M 137.757812 38.554688 C 137.738281 38.222656 137.679688 37.902344 137.574219 37.589844 C 137.484375 37.273438 137.335938 36.996094 137.125 36.75 C 136.929688 36.507812 136.675781 36.308594 136.359375 36.148438 C 136.058594 35.992188 135.679688 35.914062 135.222656 35.914062 C 134.785156 35.914062 134.40625 35.992188 134.089844 36.148438 C 133.773438 36.289062 133.507812 36.480469 133.296875 36.726562 C 133.085938 36.96875 132.917969 37.257812 132.796875 37.589844 C 132.691406 37.902344 132.613281 38.222656 132.558594 38.554688 Z M 147.910156 46.816406 C 147.011719 45.074219 146.097656 43.035156 145.164062 40.699219 C 144.25 38.363281 143.378906 35.820312 142.550781 33.066406 L 146.722656 33.066406 C 146.898438 33.746094 147.101562 34.484375 147.328125 35.289062 C 147.574219 36.070312 147.820312 36.875 148.066406 37.691406 C 148.332031 38.496094 148.585938 39.277344 148.832031 40.046875 C 149.097656 40.8125 149.351562 41.507812 149.597656 42.136719 C 149.828125 41.507812 150.074219 40.8125 150.335938 40.046875 C 150.601562 39.277344 150.855469 38.496094 151.101562 37.691406 C 151.367188 36.875 151.613281 36.070312 151.839844 35.289062 C 152.085938 34.484375 152.296875 33.746094 152.472656 33.066406 L 156.539062 33.066406 C 155.710938 35.820312 154.832031 38.363281 153.898438 40.699219 C 152.984375 43.035156 152.078125 45.074219 151.179688 46.816406 Z M 157.167969 40.046875 C 157.167969 38.824219 157.351562 37.761719 157.722656 36.855469 C 158.109375 35.933594 158.613281 35.164062 159.226562 34.554688 C 159.84375 33.945312 160.546875 33.484375 161.335938 33.171875 C 162.148438 32.855469 162.972656 32.699219 163.816406 32.699219 C 165.789062 32.699219 167.347656 33.300781 168.488281 34.503906 C 169.632812 35.6875 170.203125 37.441406 170.203125 39.757812 C 170.203125 39.984375 170.195312 40.238281 170.175781 40.515625 C 170.160156 40.777344 170.144531 41.011719 170.125 41.222656 L 161.207031 41.222656 C 161.292969 42.023438 161.671875 42.660156 162.339844 43.128906 C 163.007812 43.601562 163.90625 43.835938 165.03125 43.835938 C 165.753906 43.835938 166.457031 43.773438 167.144531 43.652344 C 167.847656 43.511719 168.417969 43.347656 168.859375 43.15625 L 169.386719 46.320312 C 169.175781 46.425781 168.894531 46.527344 168.542969 46.632812 C 168.191406 46.738281 167.792969 46.824219 167.355469 46.894531 C 166.933594 46.980469 166.476562 47.050781 165.980469 47.105469 C 165.488281 47.15625 164.996094 47.183594 164.503906 47.183594 C 163.253906 47.183594 162.164062 47 161.230469 46.632812 C 160.316406 46.265625 159.550781 45.769531 158.9375 45.144531 C 158.339844 44.5 157.890625 43.738281 157.589844 42.867188 C 157.308594 41.996094 157.167969 41.054688 157.167969 40.046875 Z M 166.402344 38.554688 C 166.386719 38.222656 166.324219 37.902344 166.21875 37.589844 C 166.132812 37.273438 165.980469 36.996094 165.769531 36.75 C 165.578125 36.507812 165.320312 36.308594 165.003906 36.148438 C 164.707031 35.992188 164.328125 35.914062 163.871094 35.914062 C 163.429688 35.914062 163.054688 35.992188 162.734375 36.148438 C 162.417969 36.289062 162.15625 36.480469 161.945312 36.726562 C 161.734375 36.96875 161.566406 37.257812 161.441406 37.589844 C 161.335938 37.902344 161.257812 38.222656 161.207031 38.554688 Z M 178.324219 47.078125 C 177.179688 47.058594 176.25 46.9375 175.527344 46.710938 C 174.824219 46.484375 174.261719 46.171875 173.839844 45.769531 C 173.433594 45.351562 173.152344 44.855469 172.996094 44.28125 C 172.851562 43.6875 172.785156 43.027344 172.785156 42.292969 L 172.785156 27.15625 L 176.714844 26.53125 L 176.714844 41.507812 C 176.714844 41.859375 176.742188 42.171875 176.792969 42.449219 C 176.847656 42.730469 176.945312 42.964844 177.085938 43.15625 C 177.242188 43.347656 177.460938 43.503906 177.746094 43.625 C 178.027344 43.75 178.402344 43.828125 178.878906 43.863281 Z M 178.324219 47.078125 " fill-opacity="1" fill-rule="nonzero"/><g clip-path="url(#dc4d0a71fb)"><path fill="#8186ff" d="M 8.847656 38.609375 C 7.089844 35.59375 8.132812 31.734375 11.179688 29.992188 L 23.464844 51.070312 C 20.417969 52.8125 16.523438 51.777344 14.761719 48.757812 Z M 8.847656 38.609375 " fill-opacity="1" fill-rule="nonzero"/></g><g clip-path="url(#5cc4476222)"><path fill="#110d1a" d="M 34.625 38.074219 L 34.625 45.046875 L 23.398438 51.46875 C 20.480469 53.136719 16.753906 52.148438 15.070312 49.257812 Z M 31.894531 28.863281 L 34.625 30.421875 L 34.625 34.105469 L 13.433594 46.449219 L 10.382812 41.21875 Z M 22.570312 23.527344 L 28.667969 27.015625 L 8.746094 38.410156 C 7.0625 35.523438 8.0625 31.828125 10.980469 30.160156 Z M 22.570312 23.527344 " fill-opacity="1" fill-rule="evenodd"/></g></svg>