<svg xmlns="http://www.w3.org/2000/svg" xmlns:xlink="http://www.w3.org/1999/xlink" width="250" zoomAndPan="magnify" viewBox="0 0 187.5 74.999997" height="100" preserveAspectRatio="xMidYMid meet" version="1.0"><defs><clipPath id="345f7662e8"><path d="M 136 30 L 157 30 L 157 56.566406 L 136 56.566406 Z M 136 30 " clip-rule="nonzero"/></clipPath><clipPath id="114c53ea49"><path d="M 159 30 L 179.519531 30 L 179.519531 50 L 159 50 Z M 159 30 " clip-rule="nonzero"/></clipPath><clipPath id="d3f42f5232"><path d="M 7.480469 18.417969 L 60 18.417969 L 60 50 L 7.480469 50 Z M 7.480469 18.417969 " clip-rule="nonzero"/></clipPath></defs><path fill="#00cf8a" d="M 87.4375 30.144531 C 84.914062 30.144531 83.226562 30.988281 81.6875 33.136719 C 81.652344 33.183594 81.609375 33.21875 81.558594 33.246094 C 81.507812 33.269531 81.449219 33.277344 81.394531 33.273438 C 81.335938 33.269531 81.28125 33.253906 81.234375 33.222656 C 81.1875 33.191406 81.148438 33.148438 81.121094 33.097656 C 79.902344 30.828125 77.902344 30.179688 76.039062 30.179688 C 74.578125 30.179688 72.648438 30.597656 71.46875 32.289062 C 71.355469 32.578125 71.265625 32.871094 71.195312 33.171875 L 71.132812 33.402344 C 71.121094 33.445312 71.09375 33.484375 71.058594 33.511719 C 71.023438 33.539062 70.984375 33.550781 70.9375 33.550781 C 70.921875 33.550781 70.90625 33.550781 70.890625 33.550781 C 70.839844 33.535156 70.792969 33.503906 70.769531 33.457031 C 70.742188 33.410156 70.734375 33.355469 70.746094 33.304688 L 70.808594 33.078125 L 70.808594 33.0625 C 71.007812 32.40625 71.046875 31.710938 70.929688 31.03125 L 70.851562 30.597656 L 66.1875 30.597656 L 66.1875 48.957031 L 71.515625 48.957031 L 71.515625 39.144531 C 71.515625 37.058594 72.699219 35.089844 74.8125 35.089844 C 77 35.089844 77.957031 36.6875 77.957031 39.105469 L 77.957031 48.957031 L 83.214844 48.957031 L 83.214844 39.105469 C 83.214844 37.023438 84.472656 35.199219 86.582031 35.199219 C 88.730469 35.199219 89.363281 36.726562 89.363281 39.03125 L 89.363281 48.957031 L 94.734375 48.957031 L 94.734375 38.917969 C 94.734375 32.078125 91.253906 30.144531 87.4375 30.144531 Z M 87.4375 30.144531 " fill-opacity="1" fill-rule="nonzero"/><path fill="#00cf8a" d="M 112.585938 30.589844 L 112.566406 30.773438 C 112.507812 31.558594 112.597656 32.347656 112.828125 33.101562 C 112.859375 33.207031 112.886719 33.304688 112.902344 33.398438 C 112.910156 33.421875 112.910156 33.449219 112.90625 33.476562 C 112.902344 33.5 112.890625 33.527344 112.878906 33.550781 C 112.863281 33.570312 112.84375 33.589844 112.824219 33.605469 C 112.800781 33.621094 112.777344 33.632812 112.75 33.636719 C 112.738281 33.640625 112.722656 33.640625 112.707031 33.636719 C 112.664062 33.636719 112.621094 33.621094 112.585938 33.59375 C 112.550781 33.5625 112.523438 33.523438 112.515625 33.480469 C 112.382812 32.871094 112.097656 32.308594 111.691406 31.839844 C 111.652344 31.789062 111.605469 31.742188 111.5625 31.699219 L 111.5625 31.6875 C 110.441406 30.699219 108.769531 30.171875 107.007812 30.171875 C 101.597656 30.09375 97.417969 33.667969 97.417969 39.765625 C 97.417969 45.824219 101.378906 49.394531 106.855469 49.355469 C 108.421875 49.324219 110.648438 48.742188 111.988281 47.289062 C 112.269531 46.914062 112.480469 46.492188 112.605469 46.042969 C 112.621094 45.992188 112.65625 45.949219 112.703125 45.921875 C 112.746094 45.898438 112.800781 45.890625 112.851562 45.90625 C 112.902344 45.921875 112.945312 45.953125 112.972656 46 C 113 46.046875 113.003906 46.101562 112.992188 46.152344 L 112.972656 46.234375 C 112.726562 47.117188 112.660156 48.039062 112.777344 48.949219 L 117.589844 48.949219 L 117.589844 30.589844 Z M 107.550781 44.609375 C 104.882812 44.609375 102.738281 42.824219 102.738281 39.773438 C 102.738281 36.722656 104.882812 34.902344 107.550781 34.902344 C 110.730469 34.902344 112.398438 37.320312 112.398438 39.960938 C 112.398438 42.265625 110.546875 44.609375 107.550781 44.609375 Z M 107.550781 44.609375 " fill-opacity="1" fill-rule="nonzero"/><path fill="#00cf8a" d="M 131.664062 30.179688 C 129.976562 30.179688 128.5625 30.492188 127.441406 31.746094 C 127.050781 32.183594 126.796875 32.726562 126.710938 33.304688 C 126.703125 33.359375 126.699219 33.414062 126.695312 33.464844 C 126.699219 33.496094 126.695312 33.523438 126.6875 33.550781 C 126.679688 33.574219 126.664062 33.601562 126.644531 33.621094 C 126.625 33.640625 126.605469 33.660156 126.578125 33.667969 C 126.550781 33.679688 126.523438 33.6875 126.496094 33.6875 C 126.46875 33.6875 126.441406 33.679688 126.414062 33.667969 C 126.390625 33.660156 126.367188 33.640625 126.347656 33.621094 C 126.332031 33.601562 126.316406 33.574219 126.304688 33.550781 C 126.296875 33.523438 126.292969 33.496094 126.296875 33.464844 C 126.300781 33.324219 126.320312 33.179688 126.351562 33.039062 C 126.519531 32.28125 126.527344 31.496094 126.382812 30.730469 L 126.359375 30.625 L 121.40625 30.625 L 121.40625 48.957031 L 126.738281 48.957031 L 126.738281 39.402344 C 126.738281 36.65625 128.703125 35.164062 130.996094 35.164062 C 132.042969 35.148438 133.066406 35.472656 133.910156 36.09375 L 136.132812 31.855469 C 134.847656 30.699219 133.402344 30.179688 131.664062 30.179688 Z M 131.664062 30.179688 " fill-opacity="1" fill-rule="nonzero"/><g clip-path="url(#345f7662e8)"><path fill="#00cf8a" d="M 151.464844 30.625 L 151.410156 31.03125 C 151.304688 31.820312 151.339844 32.621094 151.523438 33.398438 C 151.527344 33.421875 151.53125 33.449219 151.527344 33.476562 C 151.519531 33.5 151.511719 33.527344 151.496094 33.546875 C 151.480469 33.570312 151.464844 33.589844 151.441406 33.605469 C 151.421875 33.621094 151.394531 33.632812 151.371094 33.636719 C 151.355469 33.636719 151.34375 33.636719 151.328125 33.636719 C 151.285156 33.636719 151.238281 33.621094 151.203125 33.59375 C 151.167969 33.5625 151.144531 33.523438 151.136719 33.480469 C 151.019531 32.957031 150.75 32.480469 150.363281 32.113281 C 148.820312 30.648438 147.023438 30.28125 145.0625 30.28125 C 139.691406 30.28125 136.027344 34.074219 136.027344 39.804688 C 136.027344 45.753906 139.765625 49.359375 145.140625 49.359375 C 146.863281 49.359375 148.851562 48.824219 150.367188 47.328125 C 150.734375 46.96875 150.972656 46.496094 151.054688 45.984375 C 151.058594 45.960938 151.066406 45.933594 151.078125 45.910156 C 151.09375 45.890625 151.109375 45.867188 151.132812 45.851562 C 151.152344 45.835938 151.175781 45.828125 151.203125 45.820312 C 151.230469 45.8125 151.253906 45.8125 151.28125 45.816406 C 151.308594 45.820312 151.332031 45.832031 151.355469 45.84375 C 151.378906 45.855469 151.398438 45.875 151.414062 45.894531 C 151.425781 45.917969 151.441406 45.941406 151.445312 45.964844 C 151.453125 45.992188 151.453125 46.019531 151.449219 46.042969 C 151.433594 46.148438 151.410156 46.261719 151.382812 46.382812 C 151.03125 47.929688 150.863281 49.515625 150.878906 51.105469 L 150.878906 54.738281 L 156.246094 56.558594 L 156.246094 30.625 Z M 145.925781 44.535156 C 143.460938 44.554688 141.480469 42.496094 141.398438 40.023438 C 141.308594 37.277344 142.945312 35.089844 145.875 35.089844 C 148.28125 35.089844 150.796875 36.316406 150.796875 39.8125 C 150.789062 42.878906 148.34375 44.511719 145.917969 44.535156 Z M 145.925781 44.535156 " fill-opacity="1" fill-rule="nonzero"/></g><g clip-path="url(#114c53ea49)"><path fill="#00cf8a" d="M 169.046875 30.179688 C 162.980469 30.179688 159.054688 34.273438 159.054688 39.8125 C 159.054688 45.351562 162.867188 49.367188 169.046875 49.367188 C 175.269531 49.367188 179.074219 45.351562 179.074219 39.8125 C 179.074219 34.269531 175.164062 30.179688 169.046875 30.179688 Z M 169.046875 44.609375 C 165.828125 44.609375 164.457031 42.117188 164.457031 39.8125 C 164.457031 37.503906 165.863281 34.976562 169.046875 34.976562 C 172.265625 34.976562 173.675781 37.507812 173.675781 39.8125 C 173.675781 42.226562 172.304688 44.609375 169.046875 44.609375 Z M 169.046875 44.609375 " fill-opacity="1" fill-rule="nonzero"/></g><g clip-path="url(#d3f42f5232)"><path fill="#00cf8a" d="M 54.246094 33.242188 C 53.015625 32.667969 52.042969 31.652344 51.519531 30.398438 C 50.992188 29.148438 50.164062 28.050781 49.117188 27.195312 C 48.070312 26.339844 46.828125 25.757812 45.503906 25.492188 C 45.222656 25.441406 44.953125 25.332031 44.710938 25.175781 C 44.472656 25.019531 44.265625 24.8125 44.105469 24.574219 L 42.222656 21.714844 L 40.558594 21.714844 L 40.558594 22.195312 C 40.5625 22.347656 40.519531 22.496094 40.4375 22.625 C 40.355469 22.753906 40.242188 22.855469 40.105469 22.921875 C 39.96875 22.984375 39.816406 23.011719 39.664062 22.992188 C 39.515625 22.972656 39.375 22.910156 39.257812 22.8125 C 31.800781 16.382812 22.828125 17.914062 17.492188 21.664062 C 13.707031 24.257812 10.476562 27.585938 7.996094 31.457031 C 7.9375 31.546875 7.910156 31.65625 7.914062 31.761719 C 7.917969 31.871094 7.953125 31.972656 8.019531 32.058594 C 8.085938 32.144531 8.175781 32.210938 8.277344 32.242188 C 8.378906 32.277344 8.488281 32.277344 8.589844 32.246094 L 10.058594 31.792969 C 10.105469 31.777344 10.152344 31.777344 10.195312 31.789062 C 10.242188 31.796875 10.28125 31.820312 10.316406 31.851562 C 10.347656 31.882812 10.375 31.921875 10.386719 31.964844 C 10.402344 32.011719 10.402344 32.058594 10.394531 32.101562 C 9.152344 38.195312 10.574219 44.058594 15.679688 49.121094 L 22.867188 49.121094 C 22.652344 42.675781 32.761719 42.675781 32.550781 49.121094 L 39.738281 49.121094 C 40.460938 48.445312 41.125 47.710938 41.730469 46.925781 C 42.515625 45.890625 44.03125 45.855469 44.945312 46.773438 C 49.648438 51.535156 59.210938 48.550781 59.09375 40.824219 C 59.097656 39.226562 58.640625 37.660156 57.78125 36.316406 C 56.921875 34.972656 55.695312 33.90625 54.246094 33.242188 Z M 44.683594 32.851562 C 44.394531 32.851562 44.113281 32.765625 43.875 32.605469 C 43.632812 32.445312 43.445312 32.214844 43.335938 31.949219 C 43.226562 31.679688 43.195312 31.386719 43.253906 31.101562 C 43.308594 30.816406 43.449219 30.558594 43.652344 30.351562 C 43.855469 30.148438 44.117188 30.007812 44.398438 29.949219 C 44.683594 29.894531 44.976562 29.921875 45.242188 30.035156 C 45.507812 30.144531 45.734375 30.332031 45.894531 30.574219 C 46.058594 30.816406 46.140625 31.097656 46.140625 31.386719 C 46.140625 31.777344 45.988281 32.148438 45.714844 32.421875 C 45.441406 32.699219 45.070312 32.851562 44.683594 32.851562 Z M 44.683594 32.851562 " fill-opacity="1" fill-rule="nonzero"/></g></svg>