<?xml version="1.0" encoding="UTF-8"?>
<svg id="Layer_2" data-name="Layer 2" xmlns="http://www.w3.org/2000/svg" viewBox="0 0 236.94 376.91">
  <defs>
    <style>
      .cls-1 {
        fill: #000;
        stroke-width: 0px;
      }
    </style>
  </defs>
  <g id="Layer_1-2" data-name="Layer 1">
    <g>
      <path class="cls-1" d="M211.79,28.05c5.77.52,11.19,1.02,16.62,1.48,2.66.22,3.86,1.94,4.73,4.19.74,1.91,2.1,3.66,2.43,5.62.65,3.83.93,7.75,1.07,11.64.23,6.22.28,12.44.29,18.67,0,3.84-.33,7.68-.32,11.52.02,7.56.34,15.13.24,22.69-.13,9.85-.62,19.7-.78,29.55-.08,4.97.36,9.94.32,14.91-.04,5.08-.48,10.16-.56,15.25-.1,5.96-.06,11.93,0,17.9.03,2.93.46,5.87.33,8.78-.15,3.37-1,6.71-1.07,10.07-.19,8.78-.04,17.57-.19,26.36-.07,4.17-.64,8.33-.73,12.5-.11,5.23.04,10.47.07,15.71.02,3.27.03,6.53.03,9.8-.01,5.85-.02,11.71-.08,17.56-.05,5.39-.23,10.77-.23,16.16,0,6.44.33,12.89.14,19.33-.21,7.38-.91,14.75-1.23,22.13-.14,3.27.19,6.56.23,9.84.08,5.63.19,11.26.1,16.88-.05,3.12-4.91,7.62-7.9,6.89-2.34-.57-4.36-2.49-6.45-3.77-1.36,1.59-2.81,3.59-4.59,5.24-.72.66-2.16.76-3.26.75-4.31-.04-8.63-.26-12.94-.34-3.09-.05-6.19-.03-9.28.05-3.59.08-7.19.28-10.78.38-2.55.07-5.1.06-7.65.1-7.85.11-15.7.29-23.56.31-3.75.01-7.5-.4-11.25-.38-4.74.02-9.49.34-14.23.4-3.87.04-7.75-.27-11.62-.15-4.95.15-9.88.65-14.83.84-2.51.1-5.03-.17-7.54-.23-4.85-.12-9.7-.22-14.56-.32-5.25-.11-10.51-.18-15.76-.34-6.96-.21-13.91-.53-20.87-.68-1.34-.03-2.69.59-4.05.78-3.93.55-7.32-3.14-6.88-6.99.41-3.65.38-7.35.37-11.03,0-.47-1-1.34-1.56-1.36-4.15-.14-8.37.31-12.44-.29-2.89-.43-5.63-2.09-8.32-3.44-.63-.32-.77-1.63-1.19-2.63-.23.05-.81.19-1.36.31-.22-2.53-.53-4.94-.62-7.36-.11-2.69-.12-5.39,0-8.08.18-4.15.56-8.29.74-12.44.09-2.03-.12-4.08-.14-6.12-.1-7.1-.18-14.2-.26-21.29-.08-7.33-.26-14.65-.19-21.98.09-9.07.45-18.13.57-27.2.08-5.77-.13-11.54-.05-17.3.08-5.8.41-11.6.5-17.4.06-3.62-.18-7.25-.15-10.87.06-5.95.33-11.91.35-17.86.01-3.66-.37-7.31-.37-10.97,0-2.65.41-5.3.5-7.95.09-2.69-.02-5.39.01-8.09.07-5.71.19-11.41.24-17.12.03-4.22-.04-8.45-.03-12.68.01-4.75.04-9.51.12-14.26.11-6.54.34-13.07.39-19.61.04-5.15-.19-10.3-.17-15.44.02-3.29.34-6.58.42-9.87.09-4.02,0-8.04.09-12.06.13-5.59.34-11.18.56-16.77.21-5.52.51-11.03.66-16.55.02-.69-.42-1.73-.97-2.04C.13,17.81.82,15.14.97,12.89c.06-.9,1.67-2.11,2.79-2.44,3.25-.95,6.58-1.84,9.94-2.18,7.1-.72,14.23-1.14,21.35-1.57,6.22-.38,12.44-.58,18.67-.91,9.06-.48,18.12-1.08,27.19-1.48,5.91-.27,11.84-.18,17.76-.45,5.62-.25,11.23-.91,16.85-1.11,5.02-.19,10.05.11,15.08-.02,4.24-.11,8.48-.57,12.72-.8,2.31-.12,4.62-.08,6.94-.12,5.3-.1,10.72.43,15.88-.48,4.49-.79,9.01.53,13.3-.81,4.88-1.52,8.92.74,13.12,2.34.74.28,1.62,1.19,1.73,1.92.34,2.18.63,4.44.38,6.61-.29,2.54-5.21,5.95-8.2,6.04-4.66.13-9.32,0-13.98.19-3.56.15-7.1.79-10.65.94-3.96.17-7.93-.05-11.89.05-4.57.11-9.14.51-13.7.57-5.62.06-11.24-.18-16.86-.13-2.2.02-4.4.54-6.6.66-3.62.19-7.24.27-10.86.35-2.73.06-5.68-.61-8.16.19-4.14,1.33-8.27-1.41-12.4.73-1.53.79-3.98-.32-6.01-.32-3.95,0-7.91.23-11.86.25-5.56.03-11.13-.12-16.69-.05-5.06.07-10.11.42-15.17.5-4.02.06-8.04-.12-12.06-.15-1.48,0-2.96.12-4.77.21.09,1.47.21,2.78.23,4.09.09,5.54.1,11.08.24,16.62.16,6.46.48,12.92.61,19.38.14,6.57.1,13.13.19,19.7.12,9.22.32,18.44.4,27.66.04,4.42-.14,8.84-.16,13.26-.03,5.85,0,11.69.01,17.54,0,4.95-.06,9.91.06,14.86.17,6.78.57,13.55.71,20.33.06,2.75-.44,5.52-.47,8.28-.05,5.92.05,11.84.07,17.76.03,8.72-.05,17.44.09,26.15.08,5.43.71,10.86.66,16.28-.06,6.56-.64,13.11-.86,19.68-.05,1.59.49,3.2.62,4.81.11,1.4.07,2.83.03,4.24-.13,4.36-.52,8.73-.4,13.09.18,6.47.08,12.93.07,19.4,0,4.63.39,9.26.34,13.89-.07,5.42-.49,10.84-.63,16.27-.04,1.77.32,3.55.53,5.32.15,1.28.37,2.54.28,4.67,3.66-.19,7.33-.43,10.99-.57,5.75-.21,11.52-.25,17.27-.54,3.15-.16,6.27-.82,9.42-.97,6.33-.3,12.68-.29,19.01-.61,8.57-.43,17.13-1.09,25.69-1.55,2.3-.12,4.63.28,6.93.11,2.72-.2,5.41-.82,8.12-1.12.82-.09,1.75.52,2.54.37,2.18-.41,4.63.55,6.56-1.56.45-.49,2.25.13,3.39.42.73.18,1.39,1.04,2.05,1,5.07-.31,10.12-.82,15.19-1.13,1.74-.11,3.51.33,5.26.28,2.37-.06,4.74-.38,7.12-.52,1.3-.08,2.61-.02,3.92-.03,3.36,0,6.71.04,10.07-.03,2.94-.06,5.87-.33,8.81-.39,3.21-.07,6.42-.02,10.02-.02.1-1.93.25-4.36.35-6.8.15-3.65.32-7.3.39-10.95.09-4.66.27-9.32.05-13.97-.18-3.68.48-7.26.66-10.89.24-4.76.56-9.59.01-14.29-.51-4.4.4-8.65.24-12.99-.24-6.57.13-13.15.28-19.73.07-3.19.24-6.37.32-9.55.12-4.72.17-9.44.31-14.16.13-4.74.45-9.47.47-14.21.02-4.98-.25-9.96-.32-14.94-.03-1.72.2-3.45.22-5.18.05-5.35-.05-10.7.1-16.04.13-4.54.61-9.06.77-13.6.11-3.36-.18-6.73-.06-10.09.14-3.85.69-7.68.79-11.53.08-3.16-.31-6.33-.37-9.49-.07-3.44-.12-6.89.03-10.33.12-2.65.72-5.28.81-7.92.19-5.93.13-11.86.29-17.78.17-6.2.5-12.4.73-18.6.13-3.46.22-6.92.32-10.39.1-3.36.2-6.73.3-10.09.12-3.98.18-7.97.35-11.95.46-10.42.91-20.85,1.51-31.26.13-2.21,1.13-4.09,3.81-4.47,1.24-.17,2.44-1.19,3.63-1.14,2.62.11,5.42,2.83,5.62,5.58.27,3.62.1,7.27.17,10.91.04,2.15.2,4.29.28,6.09ZM218.16,363.5c.24-1.31.57-2.21.55-3.09-.11-4.92-.37-9.83-.42-14.75-.01-1.27.8-2.55.81-3.83.05-4.46-.22-8.92-.13-13.37.11-5.89.48-11.77.67-17.66.17-5.09.26-10.18.38-15.27.01-.54,0-1.09,0-1.63-.02-5.74-.05-11.49-.04-17.23.01-6.34.05-12.69.12-19.03.07-7.24.14-14.48.28-21.72.14-7.08.41-14.16.55-21.25.1-4.68.05-9.36.11-14.04.05-4.62.2-9.24.22-13.85.02-5.82-.12-11.64-.05-17.45.03-2.95.46-5.89.52-8.83.13-6.42.12-12.83.2-19.25.01-1.24.25-2.48.24-3.72-.06-5.1-.32-10.2-.24-15.29.08-4.89.63-9.77.73-14.66.11-5.21-.2-10.42-.07-15.63.17-7.36.58-14.72.86-22.08.12-3.17.13-6.34.29-9.51.26-5.38.66-10.75.82-16.13.02-.71-.95-1.92-1.66-2.1-2.78-.71-5.69-.94-8.47-1.64-2.16-.55-2.92.26-2.9,2.21.01,2.14.25,4.28.19,6.41-.2,6.77-.57,13.53-.72,20.3-.11,4.91.04,9.82.08,14.73.05,5.27.23,10.54.16,15.8-.07,5.15-.44,10.3-.6,15.45-.19,6.03-.31,12.06-.43,18.09-.06,2.99.02,5.99-.03,8.98-.08,5.16-.3,10.33-.3,15.49,0,6.32.27,12.65.2,18.97-.03,2.8-.78,5.59-.91,8.4-.25,5.25-.29,10.51-.42,15.76-.19,7.92-.45,15.83-.56,23.75-.1,7.82.04,15.65-.09,23.47-.13,7.75-.53,15.51-.7,23.26-.06,2.66.4,5.33.28,7.98-.16,3.56-.86,7.1-.95,10.66-.18,6.72-.09,13.44-.1,20.16,0,1.36.07,2.72.03,4.07-.09,2.74-.26,5.48-.35,8.22-.16,5.08-.28,10.17-.4,15.25-.06,2.38-.18,4.76-.13,7.14.08,4.13-5.04,9.52-9.05,8.87-2.98-.48-5.72-.41-8.71.02-4.56.66-9.24.5-13.87.6-3.55.08-7.11,0-10.66.04-4.1.03-8.21.06-12.31.17-3.52.1-7.04.41-10.56.48-2.76.06-5.54-.27-8.29-.12-5.04.27-10.06.97-15.11,1.13-5.69.17-11.38-.13-17.08-.11-6.64.02-13.28.21-19.93.26-5.84.04-11.68-.1-17.51,0-7.34.12-14.69.48-22.03.54-1.75.01-2.58.28-2.35,2.14.23,1.77.27,3.59.8,5.26.09.28,2.22-.1,3.41-.14,4.22-.14,8.44-.21,12.65-.4,4.57-.2,9.14-.49,13.7-.75,6.26-.36,12.52-.79,18.79-1.08,2.86-.13,5.73.07,8.59,0,3.8-.09,7.6-.28,11.39-.46,4.29-.21,8.58-.59,12.88-.65,6.29-.08,12.64.56,18.87-.08,4.29-.44,8.51.28,12.85-.51,4.94-.9,10.16-.33,15.25-.27,3.79.05,7.59.54,11.38.41,6.04-.2,12.06-.8,18.09-1.12,3.58-.19,7.22.16,10.75-.3,3.78-.49,8.24.96,10.47,4.52Z"/>
      <path class="cls-1" d="M27.26,123.82c2.66-3.9,6.49-4.69,10.56-4.88,6.87-.32,13.74-.72,20.61-.89,4.28-.11,8.58.28,12.86.19,4.31-.1,8.61-.62,12.92-.77,2.79-.1,5.59.18,8.39.2,6.36.05,12.71.12,19.07.04,6.87-.08,13.73-.31,20.6-.48,9.13-.23,18.25-.52,27.38-.69,4.95-.09,9.9-.02,14.85.08,3.78.08,6.46,3.2,6.75,7.08.24,3.18-3.09,6.24-6.66,6.36-5.58.19-11.17.31-16.75.34-3.41.02-6.82-.33-10.23-.23-1.1.03-2.3.25-2.04,2.52.7,6.12.77,12.32.95,18.49.09,2.85-.19,5.7-.18,8.55,0,1.85.32,3.25,2.95,3,2.3-.22,4.67.44,7.01.59,3.12.21,6.24.31,9.36.45,4.94.22,6.02,1.01,7.38,5.42.52,1.67-2.43,5.57-4.51,5.77-5.26.5-10.52.91-15.78,1.36-1.59.13-3.23.06-4.74.47-.65.17-1.44,1.32-1.46,2.03-.05,2.52.31,5.05.32,7.58.03,4.03-.11,8.07-.15,12.11-.03,2.39-.19,4.8.07,7.16.07.61,1.46,1.53,2.25,1.53,3.71.02,7.42-.32,11.13-.34,2.1-.01,4.23.22,6.3.58,2.06.36,3.73,2.85,3.56,4.9-.26,2.94-1.67,4.63-4.21,4.8-5.67.38-11.34.77-17.02.99-1.97.08-2.21,1.2-2.17,2.64.21,6.53.51,13.05.68,19.58.06,2.51-.25,5.03-.18,7.54.05,1.87.62,3.45,3.14,2.85,1.88-.45,3.91-.45,5.67-1.17,5.31-2.15,9.71.21,11.17,3.51,1.28,2.9.7,6.12-1.44,8.3-2.36,2.4-5.64,3.05-8.7,1.74-2.68-1.15-6.41-1.21-9.68-.12.28,6.86.74,13.74.75,20.63,0,2.61-1.02,5.23-1.45,7.29,6.15,0,12.63.03,19.11-.01,3.05-.02,4.14-1.58,4.1-4.97-.05-4.03.19-8.06.25-12.1.05-3.49-.05-6.98.04-10.47.07-2.66.36-5.32.5-7.98.35-6.54.72-13.08.97-19.62.17-4.47-.02-8.97.27-13.43.63-9.58,1.58-19.14,2.17-28.73.35-5.63.16-11.29.36-16.93.26-7.05.68-14.1,1.03-21.15.21-4.22.36-8.45.71-12.67.16-1.94.55-3.93,1.2-5.76.86-2.43,5.46-2.89,7.28-1.03,1.95,2,2.1,4.43,2.1,6.93,0,4.85-.03,9.7-.15,14.55-.19,7.8-.5,15.61-.68,23.41-.24,10.49-.36,20.99-.59,31.48-.12,5.67-.37,11.34-.51,17.01-.11,4.57-.07,9.15-.18,13.72-.25,10.28-.6,20.55-.83,30.83-.12,5.08.21,10.2-.22,15.25-.31,3.71-1.39,7.39-2.45,10.99-.22.77-1.79,1.29-2.84,1.62-1.77.56-3.6,1.2-5.42,1.25-5.39.14-10.8-.01-16.2-.03-2.79,0-5.57-.02-8.36.06-5.03.14-10.06.42-15.09.49-4.95.07-9.91-.11-14.86-.06-3.03.03-6.06.35-9.1.4-4.08.06-8.16-.1-12.23-.02-5.7.11-11.39.35-17.09.54-7.61.26-15.22.59-22.83.75-5.16.1-10.33-.12-15.49-.02-1.14.02-2.49.54-3.36,1.27-1.55,1.32-2.75,3.17-4.87.79-.2-.22-1.02.24-1.5.13-.91-.21-2.31-.39-2.56-.98-.94-2.23-2.52-4.16-2.33-6.96.44-6.63.44-13.29.6-19.93.22-8.96.49-17.92.61-26.88.13-10.55.06-21.1.2-31.65.12-9,.52-18,.63-27,.11-9.35-.07-18.7.05-28.05.14-10.78.46-21.57.74-32.35.03-1.07.42-2.13.56-3.2.06-.5.13-1.27-.16-1.5-1.32-1.07-3.21-1.79-1.7-4.06.03-.05-.75-.64-1.25-1.07ZM39.77,263.93c0,4.11-.1,7.9.02,11.67.19,5.66.76,11.31.75,16.97,0,2.73,1.21,2.59,3.15,2.5,7.76-.38,15.52-.68,23.29-.96,9.44-.33,18.89-.6,28.33-.92,1.29-.04,2.28-.44,2.25-2.06-.07-4.65-.1-9.3-.11-13.95,0-3.78,0-7.57.12-11.35.06-1.77-.21-2.81-2.35-2.48-1.92.29-3.87.43-5.81.45-5.68.06-11.36.06-17.04,0-1.67-.01-2.28.67-2.16,2.29.18,2.47.33,4.95.38,7.42.09,3.91.39,7.86.03,11.73-.32,3.4-3.83,5.53-7.75,5.39-2.31-.08-5.63-3.7-5.64-6.49-.02-4.88.18-9.76.27-14.64.03-1.41.1-2.83-.1-4.21-.07-.51-.85-1.31-1.32-1.31-5.36-.09-10.71-.06-16.31-.06ZM65.07,130.51c.45,5.79.99,11.43,1.28,17.09.25,5,.15,10.01.4,15.01.03.66,1.2,1.79,1.85,1.8,2.49.04,4.99-.31,7.49-.47,3.17-.21,6.35-.45,9.53-.53,3.52-.09,7.04-.02,11.04-.02v-32.87h-31.59ZM67.64,210.49c5.04-.24,9.23-.43,13.41-.63,4.64-.22,9.29-.42,13.93-.69,1.76-.1,2.52-1.16,2.26-2.92-.1-.71-.33-1.41-.34-2.11-.08-6.81-.13-13.62-.18-20.43-.02-2.22,0-4.44,0-7.03-6.64,0-12.79.04-18.95-.02-2.15-.02-4.32-.18-6.45-.49-2.85-.41-4.06.42-4.07,3.42-.01,2.55.35,5.11.37,7.66.05,7.7.02,15.4.02,23.25ZM96.92,219.02c-1.19.33-1.59.54-2,.54-8,.08-16,.21-24.01.14-2.09-.02-2.74.65-2.62,2.62.21,3.48.28,6.97.44,10.46.29,6.38.55,12.76.98,19.13.04.62,1.12,1.59,1.8,1.66,1.73.2,3.51-.01,5.26-.07,5.26-.19,10.52-.47,15.78-.54,4.24-.05,5.64-1.4,5.46-4.87-.35-6.86-.37-13.75-.59-20.62-.09-2.71-.33-5.42-.52-8.44ZM134.65,162.76c.32-10.65.63-21.22.95-32.23h-29.36c.24,2.16.57,4.13.65,6.1.35,8.15.64,16.3.94,24.44.06,1.55.38,2.35,2.39,2.26,5.18-.23,10.38,0,15.57-.08,2.92-.04,5.84-.32,8.87-.5ZM109.64,251.71c2.33,0,3.82,0,5.3,0,1.52,0,3.04,0,4.55-.02,2.82-.06,5.64-.13,8.46-.24,5.58-.21,5.71-.22,6.11-5.52.34-4.43.37-8.88.44-13.33.06-3.99.06-7.99-.13-11.98-.03-.66-1.2-1.8-1.87-1.82-4.03-.13-8.08.02-12.12.05-3.7.02-7.39,0-10.75,0v32.85ZM108.9,208.29c7.53,0,14.32.17,21.1-.13,1.46-.06,4.3.57,4.48-2.31.3-4.78.5-9.57.46-14.35-.03-4.91-.4-9.82-.61-14.57h-25.43v31.37ZM38.49,165.81c5.4-.29,10.47-.8,15.52-.72,2.9.05,3.16-1.15,3.16-3.48,0-8.37.19-16.73.29-25.1.02-1.91,0-3.83,0-6.21h-19.92c.31,11.72.62,23.4.94,35.51ZM38.66,211.36c5.69,0,10.95.04,16.21-.02,1.95-.02,2.87-.8,2.51-3.12-.4-2.55-.17-5.2-.17-7.8.01-7.45.07-14.91.05-22.36,0-1.19-.26-2.31-1.98-2.29-5.52.07-11.04.02-16.62.02v35.56ZM135.35,292.08c-1.92-5.35-2.69-17.1-1.89-23.14.28-2.06.04-4.2.04-5.87h-23.25c.53,10.1,1.04,19.68,1.54,29.01h23.55ZM57.6,254.11c0-4.92.05-9.66-.01-14.39-.08-6.11-.22-12.21-.46-18.32-.02-.56-.91-1.53-1.41-1.54-5.39-.11-10.79-.07-16.25-.07v35.48c6.28-.4,12.06-.77,18.14-1.16Z"/>
      <path class="cls-1" d="M128.68,64.05c-1.91-.06-3.13-.14-4.34-.14-4.11,0-8.21,0-12.32.03-4.21.03-8.41.09-12.62.16-5.22.09-10.44.26-15.66.29-9.38.05-18.76-.05-28.13.08-3.38.05-6.77.91-10.14.78-4.19-.15-8.43-.67-12.5-1.62-1.25-.29-2.24-2.44-2.98-3.93-.75-1.5-1.01-2.75.21-4.79,2.84-4.77,7.11-4.68,11.49-4.82,5.1-.16,10.21-.14,15.32-.2,5.83-.07,11.67-.11,17.5-.25,6.55-.15,13.09-.46,19.63-.59,5.23-.1,10.46.01,15.68-.05,5.74-.07,11.47-.15,17.2-.39,5.27-.22,10.54-.77,15.81-.96,4.3-.15,8.61.05,12.91.05.88,0,1.81.02,2.62-.27,3.85-1.39,5.96,2.02,8.9,3.12.3.11.73.52.72.77-.15,3.04-.08,6.15-.75,9.09-.23,1.02-2.33,1.67-3.63,2.37-4.16,2.25-8.6.6-12.9.84-4.37.24-8.76.12-13.14.14-2.48,0-4.97-.06-7.45-.01-.71.01-1.42.3-1.43.31Z"/>
      <path class="cls-1" d="M139.67,87.72c.12,1.13.33,2.26.31,3.38-.02.67-.23,1.68-.69,1.93-2.81,1.56-4.98,4.03-9.08,3.21-4.67-.93-9.64-.35-14.48-.48-7.41-.2-14.81-.44-22.22-.66-1.42-.04-2.83-.01-4.25-.03-6.41-.08-12.81-.14-19.22-.27-7.5-.15-15.01-.3-22.51-.58-1.58-.06-3.42-.33-4.65-1.2-1.32-.94-2.62-2.58-2.93-4.12-.52-2.63,1.72-4.15,3.82-4.62,3.02-.67,6.21-.63,9.33-.84,2.06-.14,4.13-.22,6.2-.24,9.75-.07,19.5-.1,29.25-.18,7.47-.06,14.94-.08,22.41-.28,7.16-.19,14.32-.54,21.47-.92,3.02-.16,7.59,3.28,7.24,5.88Z"/>
    </g>
  </g>
</svg>